<svg width="115" height="159" viewBox="0 0 115 159" fill="none" xmlns="http://www.w3.org/2000/svg">
<path d="M25.6983 5.57895L31.2441 97.2243H5.47223L55.7021 148.817L65.3567 159L114.917 108.481L107.193 97.2243H89.7826L94.5495 16.4406L86.5967 5.57895L86.2931 5.64346L86.2969 5.57895H25.6983Z" fill="#FFFB9B"/>
<path fillrule="evenodd" clip-rule="evenodd" d="M58.3199 5.57895L54.7222 12.6529L63.8308 17.4679L69.8774 5.57895H58.3199ZM28.0561 21.9361L27.0663 5.57895H27.3568L38.6213 18.2421L31.0211 25.2692L28.0561 21.9361ZM21.1452 97.2243H32.6121L32.4092 93.8705L37.9588 99.4675L30.7431 106.904L21.1452 97.2243ZM69.4305 156.242L66.7247 159L65.4685 157.675L67.4174 154.816L69.4305 156.242ZM92.1286 133.105L84.7562 140.62L83.4513 139.695L89.3063 131.105L92.1286 133.105ZM109.085 97.9875L115 106.609L109.355 111.638L102.604 103.761L109.085 97.9875ZM93.9947 49.0271L93.328 60.3253L83.4513 55.4361L87.9328 46.0263L93.9947 49.0271ZM69.1883 32.5187L45.1458 46.8475L50.3238 55.878L74.3664 41.5492L69.1883 32.5187ZM52.9709 95.8788L65.6062 70.5768L74.7496 75.3227L62.1143 100.625L52.9709 95.8788ZM73.085 126.28L48.7996 140.176L43.7777 131.054L68.0631 117.158L73.085 126.28Z" fill="#FF729B"/>
<path d="M74.9675 92.9138L98.8444 93.04L49.9446 142.229L2.35472 92.9138H25.649H26.7109L26.6472 91.8539L21.1915 1H79.6508L73.9747 91.8515L73.9087 92.9082L74.9675 92.9138Z" stroke="black" stroke-width="2"/>
<path d="M49.934 143.658L60.8784 154.118L109.444 103.838L101.236 92.0526L49.934 143.658Z" fill="black"/>
<path d="M84.4751 92.4785L89.2108 10.9604L80.7152 0L73.8749 92.4785H84.4751Z" fill="black"/>
</svg>
