<svg width="112" height="103" viewBox="0 0 112 103" fill="none" xmlns="http://www.w3.org/2000/svg">
<g clip-path="url(#clip0_3_93)">
<mask id="mask0_3_93" style="mask-type:alpha" maskUnits="userSpaceOnUse" x="45" y="39" width="67" height="48">
<path d="M103.086 53.1693C99.1974 45.0125 90.947 39.8151 81.8879 39.8151H75.2594C66.2003 39.8151 57.9499 45.0125 54.061 53.1693L51.83 57.8485C51.2482 59.0688 50.014 59.8463 48.6587 59.8463H48.4961C46.6466 59.8463 45.1473 61.3411 45.1473 63.1849C45.1473 65.0287 46.6466 66.5234 48.4961 66.5234H48.6587C50.014 66.5234 51.2482 67.301 51.83 68.5213L54.061 73.2005C57.9499 81.3572 66.2003 86.5546 75.2594 86.5546H81.8879C90.947 86.5546 99.1974 81.3572 103.086 73.2005L105.317 68.5213C105.899 67.301 107.133 66.5234 108.489 66.5234H108.651C110.501 66.5234 112 65.0287 112 63.1849C112 61.3411 110.501 59.8463 108.651 59.8463H108.489C107.133 59.8463 105.899 59.0688 105.317 57.8485L103.086 53.1693Z" fill="#FFDB5C"/>
</mask>
<g mask="url(#mask0_3_93)">
<path d="M103.086 53.1693C99.1974 45.0125 90.947 39.8151 81.8879 39.8151H75.2594C66.2003 39.8151 57.9499 45.0125 54.061 53.1693L51.83 57.8485C51.2482 59.0688 50.014 59.8463 48.6587 59.8463H48.4961C46.6466 59.8463 45.1473 61.3411 45.1473 63.1849C45.1473 65.0287 46.6466 66.5234 48.4961 66.5234H48.6587C50.014 66.5234 51.2482 67.301 51.83 68.5213L54.061 73.2005C57.9499 81.3572 66.2003 86.5546 75.2594 86.5546H81.8879C90.947 86.5546 99.1974 81.3572 103.086 73.2005L105.317 68.5213C105.899 67.301 107.133 66.5234 108.489 66.5234H108.651C110.501 66.5234 112 65.0287 112 63.1849C112 61.3411 110.501 59.8463 108.651 59.8463H108.489C107.133 59.8463 105.899 59.0688 105.317 57.8485L103.086 53.1693Z" fill="#FFDB5C"/>
<path d="M79.0078 49.3361L76.4031 51.9328M90.2946 49.3361L87.6899 51.9328M100.713 49.3361L98.1085 51.9328M112 49.3361L109.395 51.9328M35.5969 49.3361L32.9922 51.9328M46.8837 49.3361L44.2791 51.9328M57.3023 49.3361L54.6977 51.9328M68.5891 49.3361L65.9845 51.9328M84.2171 60.5882L81.6124 63.1849M95.5039 60.5882L92.8992 63.1849M105.922 60.5882L103.318 63.1849M117.209 60.5882L114.605 63.1849M40.8062 60.5882L38.2016 63.1849M52.093 60.5882L49.4884 63.1849M62.5116 60.5882L59.907 63.1849M73.7984 60.5882L71.1938 63.1849M84.2171 38.9496L81.6124 41.5462M95.5039 38.9496L92.8992 41.5462M105.922 38.9496L103.318 41.5462M117.209 38.9496L114.605 41.5462M40.8062 38.9496L38.2016 41.5462M52.093 38.9496L49.4884 41.5462M62.5116 38.9496L59.907 41.5462M73.7984 38.9496L71.1938 41.5462M79.0078 70.9748L76.4031 73.5714M90.2946 70.9748L87.6899 73.5714M100.713 70.9748L98.1085 73.5714M112 70.9748L109.395 73.5714M35.5969 70.9748L32.9922 73.5714M46.8837 70.9748L44.2791 73.5714M57.3023 70.9748L54.6977 73.5714M68.5891 70.9748L65.9845 73.5714M84.2171 82.2269L81.6124 84.8235M95.5039 82.2269L92.8992 84.8235M105.922 82.2269L103.318 84.8235M117.209 82.2269L114.605 84.8235M40.8062 82.2269L38.2016 84.8235M52.093 82.2269L49.4884 84.8235M62.5116 82.2269L59.907 84.8235M73.7984 82.2269L71.1938 84.8235" stroke="#00AEEF" stroke-linejoin="round"/>
</g>
<ellipse cx="21.3196" cy="21.254" rx="21.3196" ry="21.254" fill="#FFBD3E"/>
<path d="M23.6891 12.4379C24.5353 9.28953 22.5934 5.92829 19.3518 6.35373C16.1103 6.77918 15.1072 10.5269 16.7419 13.3497L21.3195 21.254L14.8458 14.8002C12.5339 12.4954 8.64308 12.4914 7.39189 15.5027C6.1407 18.514 8.89483 21.254 12.1643 21.254L21.3195 21.254L12.4763 23.6162C9.3182 24.4598 7.36927 27.817 9.35962 30.4029C11.35 32.9888 15.1072 31.981 16.742 29.1582L21.3195 21.254L18.95 30.07C18.1038 33.2184 20.0457 36.5796 23.2873 36.1542C26.5288 35.7287 27.5319 31.981 25.8972 29.1582L21.3195 21.254L30.1628 18.8917C33.3209 18.0481 35.2699 14.6909 33.2795 12.105C31.2891 9.51909 27.5319 10.5269 25.8972 13.3497L21.3195 21.254L23.6891 12.4379Z" fill="#FFDB5C"/>
<path d="M39.1792 21.254C39.1792 31.0826 31.1861 39.0555 21.3196 39.0555C11.4531 39.0555 3.45996 31.0826 3.45996 21.254C3.45996 11.4253 11.4531 3.45238 21.3196 3.45238C31.1861 3.45238 39.1792 11.4253 39.1792 21.254Z" stroke="#FFDB5C" stroke-width="2"/>
<path d="M25.5494 84.0159L22.3723 22.254H66.1858L63.0088 84.0159H25.5494Z" fill="white" stroke="#66A9FF" stroke-width="2"/>
<path fill-rule="evenodd" clip-rule="evenodd" d="M22.4115 42.4806C33.6785 41.9139 42.6391 32.6271 42.6391 21.254L21.3195 21.254L22.4115 42.4806Z" fill="#66A9FF"/>
<path opacity="0.5" d="M25.4195 21.254H35.2593V79.2937H28.6994L25.4195 21.254Z" fill="#F5F9FF"/>
<path d="M40.5891 77.25L66.4186 3.26984H88.1481" stroke="#006FFF" stroke-width="6"/>
<path d="M27.0594 45.7778H61.4987L59.7416 80.1111H28.8165L27.0594 45.7778Z" fill="#FEE798"/>
<path d="M35.2593 45.7778V80.1111H28.7747L27.0594 45.7778H35.2593Z" fill="#FFF3CC"/>
<path fill-rule="evenodd" clip-rule="evenodd" d="M40.9414 80.1111L36.9364 78.7147L48.4204 45.7778H54.7746L42.8038 80.1111H40.9414Z" fill="#FFBD3E"/>
<path d="M73.7985 79.8918C75.1089 76.1558 76.9214 70.3754 81.304 66.349C83.6867 64.1599 87.4843 63.646 87.3733 66.8679C87.2522 70.379 83.6844 73.5549 80.9069 75.41C78.133 77.2626 77.54 76.2617 80.1523 74.0739C84.7763 70.2012 91.2866 68.9339 97.235 69.0797C107.058 69.3203 103.465 76.0005 97.1159 78.5752C93.2637 80.1372 89.1599 81.022 85.017 81.416C83.1103 81.5974 82.2512 81.2843 84.7192 81.1371C88.351 80.9206 91.8629 81.5977 95.309 82.6808C101.074 84.4926 99.0913 87.2671 93.7669 88.4858C87.5715 89.9037 80.1237 89.009 75.4664 84.445" stroke="#12D68E" stroke-width="2" stroke-linecap="round" stroke-linejoin="round"/>
<mask id="mask1_3_93" style="mask-type:alpha" maskUnits="userSpaceOnUse" x="45" y="74" width="37" height="29">
<path d="M67.7009 103H50.9572C46.9217 103 44.4187 98.6228 46.4746 95.1609L54.9977 80.8096C60.4027 71.7085 73.6327 71.7627 78.9625 80.9077L79.7121 82.194C85.0929 91.4264 78.4115 103 67.7009 103Z" fill="#FF4C4C"/>
</mask>
<g mask="url(#mask1_3_93)">
<path d="M67.7009 103H50.9572C46.9217 103 44.4187 98.6228 46.4746 95.1609L54.9977 80.8096C60.4027 71.7085 73.6327 71.7627 78.9625 80.9077L79.7121 82.194C85.0929 91.4264 78.4115 103 67.7009 103Z" fill="#FF4C4C"/>
<path d="M58.5426 86.5546C58.5426 87.4424 57.8096 88.1621 56.9054 88.1621C56.0012 88.1621 55.2682 87.4424 55.2682 86.5546C55.2682 85.6669 56.0012 84.9472 56.9054 84.9472C57.8096 84.9472 58.5426 85.6669 58.5426 86.5546Z" fill="white"/>
<path d="M69.1845 86.5546C69.1845 87.4424 68.4515 88.1621 67.5473 88.1621C66.6431 88.1621 65.9101 87.4424 65.9101 86.5546C65.9101 85.6669 66.6431 84.9472 67.5473 84.9472C68.4515 84.9472 69.1845 85.6669 69.1845 86.5546Z" fill="white"/>
<path d="M79.0078 86.5546C79.0078 87.4424 78.2748 88.1621 77.3705 88.1621C76.4663 88.1621 75.7333 87.4424 75.7333 86.5546C75.7333 85.6669 76.4663 84.9472 77.3705 84.9472C78.2748 84.9472 79.0078 85.6669 79.0078 86.5546Z" fill="white"/>
<path d="M53.631 96.1993C53.631 97.087 52.898 97.8067 51.9938 97.8067C51.0896 97.8067 50.3566 97.087 50.3566 96.1993C50.3566 95.3115 51.0896 94.5918 51.9938 94.5918C52.898 94.5918 53.631 95.3115 53.631 96.1993Z" fill="white"/>
<path d="M64.2729 96.1993C64.2729 97.087 63.5399 97.8067 62.6357 97.8067C61.7315 97.8067 60.9985 97.087 60.9985 96.1993C60.9985 95.3115 61.7315 94.5918 62.6357 94.5918C63.5399 94.5918 64.2729 95.3115 64.2729 96.1993Z" fill="white"/>
<path d="M74.0961 96.1993C74.0961 97.087 73.3631 97.8067 72.4589 97.8067C71.5547 97.8067 70.8217 97.087 70.8217 96.1993C70.8217 95.3115 71.5547 94.5918 72.4589 94.5918C73.3631 94.5918 74.0961 95.3115 74.0961 96.1993Z" fill="white"/>
<path d="M64.2729 76.91C64.2729 77.7977 63.5399 78.5174 62.6357 78.5174C61.7315 78.5174 60.9985 77.7977 60.9985 76.91C60.9985 76.0222 61.7315 75.3025 62.6357 75.3025C63.5399 75.3025 64.2729 76.0222 64.2729 76.91Z" fill="white"/>
<path d="M74.9147 76.91C74.9147 77.7977 74.1817 78.5174 73.2775 78.5174C72.3733 78.5174 71.6403 77.7977 71.6403 76.91C71.6403 76.0222 72.3733 75.3025 73.2775 75.3025C74.1817 75.3025 74.9147 76.0222 74.9147 76.91Z" fill="white"/>
</g>
</g>
<defs>
<clipPath id="clip0_3_93">
<rect width="112" height="103" fill="white"/>
</clipPath>
</defs>
</svg>
