<svg width="70" height="67" viewBox="0 0 70 67" fill="none" xmlns="http://www.w3.org/2000/svg">
<path d="M49.808 40.288C49.808 41.696 48.72 42.8693 46.544 43.808C44.9227 44.5333 43.5787 44.896 42.512 44.896H31.632C30.224 47.9253 29.52 49.888 29.52 50.784V63.264C29.52 63.9893 28.9013 64.608 27.664 65.12C26.768 65.4613 26 65.632 25.36 65.632C23.9093 65.632 22.736 64.992 21.84 63.712C21.1147 62.7307 20.752 61.7493 20.752 60.768C20.752 60.5547 21.008 58.7627 21.52 55.392C22.032 51.6373 22.3733 48.5867 22.544 46.24C21.8613 46.368 20.9013 46.432 19.664 46.432C18.8107 46.432 17.7653 46.4107 16.528 46.368C15.3333 46.2827 14.672 46.24 14.544 46.24C11.728 46.24 10.0427 47.9467 9.488 51.36C9.36 54.56 9.232 57.7387 9.104 60.896C8.80533 64.352 7.54667 66.08 5.328 66.08C3.19467 66.08 2.128 64.0533 2.128 60C2.128 59.488 2.14933 58.9333 2.192 58.336C2.23467 57.7387 2.256 57.44 2.256 57.44C2.256 45.8347 4.176 35.6587 8.016 26.912C8.912 26.656 9.72267 26.528 10.448 26.528C13.136 26.528 14.48 28.4053 14.48 32.16C14.48 32.8427 14.352 34.4853 14.096 37.088C14.7787 37.3013 16.4 37.408 18.96 37.408C22.9707 37.408 25.6373 36.3413 26.96 34.208C27.3867 33.6107 27.9413 31.648 28.624 28.32C29.0507 26.1867 30.16 25.12 31.952 25.12C33.3173 25.12 34.384 25.6107 35.152 26.592C35.8347 27.4027 36.176 28.3627 36.176 29.472C36.176 29.8987 35.7493 30.9867 34.896 32.736C33.9147 34.8693 33.296 36.32 33.04 37.088C36.1547 37.344 39.248 37.6 42.32 37.856C47.312 38.368 49.808 39.1787 49.808 40.288Z" fill="#ED203D"/>
<path d="M47.808 38.288C47.808 39.696 46.72 40.8693 44.544 41.808C42.9227 42.5333 41.5787 42.896 40.512 42.896H29.632C28.224 45.9253 27.52 47.888 27.52 48.784V61.264C27.52 61.9893 26.9013 62.608 25.664 63.12C24.768 63.4613 24 63.632 23.36 63.632C21.9093 63.632 20.736 62.992 19.84 61.712C19.1147 60.7307 18.752 59.7493 18.752 58.768C18.752 58.5547 19.008 56.7627 19.52 53.392C20.032 49.6373 20.3733 46.5867 20.544 44.24C19.8613 44.368 18.9013 44.432 17.664 44.432C16.8107 44.432 15.7653 44.4107 14.528 44.368C13.3333 44.2827 12.672 44.24 12.544 44.24C9.728 44.24 8.04267 45.9467 7.488 49.36C7.36 52.56 7.232 55.7387 7.104 58.896C6.80533 62.352 5.54667 64.08 3.328 64.08C1.19467 64.08 0.128 62.0533 0.128 58C0.128 57.488 0.149333 56.9333 0.192 56.336C0.234667 55.7387 0.256 55.44 0.256 55.44C0.256 43.8347 2.176 33.6587 6.016 24.912C6.912 24.656 7.72267 24.528 8.448 24.528C11.136 24.528 12.48 26.4053 12.48 30.16C12.48 30.8427 12.352 32.4853 12.096 35.088C12.7787 35.3013 14.4 35.408 16.96 35.408C20.9707 35.408 23.6373 34.3413 24.96 32.208C25.3867 31.6107 25.9413 29.648 26.624 26.32C27.0507 24.1867 28.16 23.12 29.952 23.12C31.3173 23.12 32.384 23.6107 33.152 24.592C33.8347 25.4027 34.176 26.3627 34.176 27.472C34.176 27.8987 33.7493 28.9867 32.896 30.736C31.9147 32.8693 31.296 34.32 31.04 35.088C34.1547 35.344 37.248 35.6 40.32 35.856C45.312 36.368 47.808 37.1787 47.808 38.288Z" fill="#FCBA28"/>
<path d="M69.136 34.784C69.136 36.3627 66.1493 38.5387 60.176 41.312C56.208 43.0187 52.24 44.7253 48.272 46.432L63.632 50.528C64.144 50.784 64.6347 51.0613 65.104 51.36C66 51.8293 66.448 52.1707 66.448 52.384C66.448 53.664 66.1707 54.752 65.616 55.648C65.1467 56.3733 64.6987 56.736 64.272 56.736C62.224 56.736 58.6827 56.1173 53.648 54.88C49.1253 53.7707 45.648 52.7467 43.216 51.808C41.9787 54.8373 40.2507 59.6373 38.032 66.208C37.52 66.592 36.9013 66.784 36.176 66.784C34.5973 66.784 33.808 65.824 33.808 63.904C33.808 63.1787 34.7467 59.3813 36.624 52.512C38.8 44.3627 40.912 37.6853 42.96 32.48C45.6907 25.3547 47.9733 21.792 49.808 21.792C50.6187 21.792 51.344 22.1973 51.984 23.008C52.496 23.648 52.752 24.2027 52.752 24.672C52.752 26.592 52.0053 29.2587 50.512 32.672C48.976 36.2987 48.1653 38.5387 48.08 39.392C50.2987 38.6667 53.7333 36.9173 58.384 34.144C62.1387 31.8827 65.04 30.752 67.088 30.752C67.5573 30.752 68.0053 31.264 68.432 32.288C68.9013 33.2693 69.136 34.1013 69.136 34.784Z" fill="#FCBA28"/>
<path d="M67.136 31.784C67.136 33.3627 64.1493 35.5387 58.176 38.312C54.208 40.0187 50.24 41.7253 46.272 43.432L61.632 47.528C62.144 47.784 62.6347 48.0613 63.104 48.36C64 48.8293 64.448 49.1707 64.448 49.384C64.448 50.664 64.1707 51.752 63.616 52.648C63.1467 53.3733 62.6987 53.736 62.272 53.736C60.224 53.736 56.6827 53.1173 51.648 51.88C47.1253 50.7707 43.648 49.7467 41.216 48.808C39.9787 51.8373 38.2507 56.6373 36.032 63.208C35.52 63.592 34.9013 63.784 34.176 63.784C32.5973 63.784 31.808 62.824 31.808 60.904C31.808 60.1787 32.7467 56.3813 34.624 49.512C36.8 41.3627 38.912 34.6853 40.96 29.48C43.6907 22.3547 45.9733 18.792 47.808 18.792C48.6187 18.792 49.344 19.1973 49.984 20.008C50.496 20.648 50.752 21.2027 50.752 21.672C50.752 23.592 50.0053 26.2587 48.512 29.672C46.976 33.2987 46.1653 35.5387 46.08 36.392C48.2987 35.6667 51.7333 33.9173 56.384 31.144C60.1387 28.8827 63.04 27.752 65.088 27.752C65.5573 27.752 66.0053 28.264 66.432 29.288C66.9013 30.2693 67.136 31.1013 67.136 31.784Z" fill="#ED203D"/>
</svg>
