<svg width="275" height="249" viewBox="0 0 275 249" fill="none" xmlns="http://www.w3.org/2000/svg">
<path fill-rule="evenodd" clip-rule="evenodd" d="M155.769 14.7553C153.788 6.57983 146.422 0.508301 137.638 0.508301C128.851 0.508301 121.483 6.5834 119.505 14.7625C114.532 11.4584 108.067 10.584 102.113 12.9895C92.7181 16.7854 88.0813 27.3402 91.5434 36.7843H61.8857C28.1202 36.7843 0.747803 64.1567 0.747803 97.9222V118.612C0.747803 152.377 28.1202 179.75 61.8857 179.75H88.2897C88.695 179.75 89.0237 180.078 89.0237 180.484C89.0237 185.489 90.5496 190.137 93.1616 193.989V215.164C93.1616 226.533 101.588 235.934 112.535 237.463C117.643 244.291 125.789 248.715 134.989 248.715H140.506C149.707 248.715 157.852 244.291 162.96 237.463C173.908 235.934 182.334 226.533 182.334 215.164V193.989C184.946 190.137 186.472 185.489 186.472 180.484C186.472 180.078 186.801 179.75 187.206 179.75H213.61C247.375 179.75 274.748 152.377 274.748 118.612V97.9222C274.748 64.1567 247.375 36.7843 213.61 36.7843H183.719C187.182 27.3402 182.545 16.7854 173.149 12.9895C167.2 10.5857 160.74 11.4571 155.769 14.7553ZM112.92 187.577H113.117L159.817 220.681H154.3C152.776 220.681 151.576 221.935 151.2 223.412C149.985 228.185 145.658 231.715 140.506 231.715H134.989C129.838 231.715 125.51 228.185 124.295 223.412C123.919 221.935 122.72 220.681 121.196 220.681H115.679C112.632 220.681 110.162 218.211 110.162 215.164V190.336C110.162 188.812 111.397 187.577 112.92 187.577Z" fill="#AF71FE"/>
<path d="M135.983 19.1634C135.983 18.2492 136.724 17.5082 137.638 17.5082C138.552 17.5082 139.293 18.2492 139.293 19.1634V43.4392C139.293 44.3533 138.552 45.0944 137.638 45.0944C136.724 45.0944 135.983 44.3533 135.983 43.4392V19.1634Z" fill="#333333"/>
<path d="M110.726 29.7043C110.369 28.8215 109.365 28.3949 108.482 28.7516C107.599 29.1083 107.172 30.1132 107.529 30.9961L112.747 43.9102C113.01 44.5619 113.642 44.9885 114.345 44.9885C115.568 44.9885 116.402 43.7518 115.944 42.6185L110.726 29.7043Z" fill="#333333"/>
<path d="M167.734 30.9961C168.091 30.1132 167.664 29.1083 166.781 28.7516C165.898 28.3949 164.893 28.8215 164.537 29.7043L159.319 42.6185C158.861 43.7518 159.695 44.9885 160.918 44.9885C161.62 44.9885 162.253 44.5619 162.516 43.9102L167.734 30.9961Z" fill="#333333"/>
<path d="M257.748 97.9222C257.748 73.5455 237.987 53.7843 213.61 53.7843H61.8857C37.509 53.7843 17.7478 73.5455 17.7478 97.9222V118.612C17.7478 142.989 37.509 162.75 61.8857 162.75H88.2897C98.0839 162.75 106.024 170.69 106.024 180.484C106.024 184.401 109.2 187.577 113.117 187.577H162.378C166.296 187.577 169.472 184.401 169.472 180.484C169.472 170.69 177.412 162.75 187.206 162.75H213.61C237.987 162.75 257.748 142.989 257.748 118.612V97.9222Z" fill="#FFD600"/>
<path fill-rule="evenodd" clip-rule="evenodd" d="M16.7478 97.9222C16.7478 72.9932 36.9567 52.7843 61.8857 52.7843H213.61C238.539 52.7843 258.748 72.9932 258.748 97.9222V118.612C258.748 143.541 238.539 163.75 213.61 163.75H187.206C177.964 163.75 170.472 171.242 170.472 180.484C170.472 184.954 166.848 188.577 162.378 188.577H113.117C108.647 188.577 105.024 184.954 105.024 180.484C105.024 171.242 97.5316 163.75 88.2897 163.75H61.8857C36.9567 163.75 16.7478 143.541 16.7478 118.612V97.9222ZM61.8857 54.7843C38.0613 54.7843 18.7478 74.0978 18.7478 97.9222V118.612C18.7478 142.436 38.0613 161.75 61.8857 161.75H88.2897C98.6362 161.75 107.024 170.137 107.024 180.484C107.024 183.849 109.752 186.577 113.117 186.577H162.378C165.744 186.577 168.472 183.849 168.472 180.484C168.472 170.137 176.859 161.75 187.206 161.75H213.61C237.434 161.75 256.748 142.436 256.748 118.612V97.9222C256.748 74.0978 237.434 54.7843 213.61 54.7843H61.8857Z" fill="#333333"/>
<path d="M110.162 190.336C110.162 188.812 111.397 187.577 112.92 187.577H162.575C164.099 187.577 165.334 188.812 165.334 190.336V215.164C165.334 218.211 162.864 220.681 159.817 220.681H115.679C112.632 220.681 110.162 218.211 110.162 215.164V190.336Z" fill="#2678F4"/>
<path fill-rule="evenodd" clip-rule="evenodd" d="M109.162 190.336C109.162 188.26 110.844 186.577 112.92 186.577H162.575C164.651 186.577 166.334 188.26 166.334 190.336V215.164C166.334 218.763 163.416 221.681 159.817 221.681H115.679C112.079 221.681 109.162 218.763 109.162 215.164V190.336ZM112.92 188.577C111.949 188.577 111.162 189.365 111.162 190.336V215.164C111.162 217.658 113.184 219.681 115.679 219.681H159.817C162.312 219.681 164.334 217.658 164.334 215.164V190.336C164.334 189.365 163.547 188.577 162.575 188.577H112.92Z" fill="#333333"/>
<path d="M123.955 220.681H151.541V220.681C151.541 226.775 146.601 231.715 140.506 231.715H134.989C128.895 231.715 123.955 226.775 123.955 220.681V220.681Z" fill="#333333"/>
<path fill-rule="evenodd" clip-rule="evenodd" d="M125.004 221.681C125.506 226.753 129.785 230.715 134.989 230.715H140.506C145.711 230.715 149.99 226.753 150.492 221.681H125.004ZM151.541 220.681V219.681H123.955V220.681H122.955C122.955 227.327 128.343 232.715 134.989 232.715H140.506C147.153 232.715 152.541 227.327 152.541 220.681H151.541Z" fill="#333333"/>
<rect x="106.024" y="195.853" width="63.4483" height="4.13793" rx="2.06897" fill="#333333"/>
<rect x="106.024" y="208.267" width="63.4483" height="4.13793" rx="2.06897" fill="#333333"/>
<path d="M160.354 86.2307C164.683 86.2307 167.194 85.9078 168.773 85.5718C169.542 85.4083 170.08 85.2437 170.472 85.1234L170.506 85.1129C170.935 84.9816 171.07 84.9507 171.17 84.9507C172.433 84.9507 173.521 86.0488 174.34 87.9221C175.13 89.7282 175.492 91.882 175.492 93.1766C175.492 94.1417 175.298 95.1261 174.882 95.837C174.492 96.5035 173.922 96.9225 173.026 96.9225C172.481 96.9225 172.112 96.8398 171.846 96.7271C171.587 96.6169 171.384 96.4601 171.195 96.2488C170.994 96.0254 170.815 95.7505 170.594 95.3902L170.507 95.2472C170.315 94.9324 170.092 94.5664 169.825 94.2023C169.181 93.3261 168.275 92.4477 166.702 91.803C165.156 91.1693 163.01 90.7785 159.906 90.7785C158.127 90.7785 156.744 90.8562 155.698 91.1197C154.615 91.3926 153.801 91.8894 153.294 92.7714C152.826 93.5874 152.691 94.6235 152.646 95.7921C152.616 96.5565 152.624 97.4637 152.633 98.4994C152.639 99.0566 152.644 99.6512 152.644 100.281C152.644 101.197 152.654 101.965 152.744 102.573C152.835 103.186 153.025 103.782 153.505 104.225C153.973 104.659 154.584 104.821 155.209 104.898C155.839 104.976 156.639 104.983 157.602 104.983C158.314 104.983 158.932 104.852 159.456 104.581C159.986 104.306 160.37 103.912 160.648 103.465C161.168 102.626 161.326 101.559 161.452 100.714L161.455 100.695C161.595 99.7499 161.703 99.0452 161.981 98.5479C162.105 98.3273 162.249 98.1762 162.433 98.0729C162.62 97.9671 162.907 97.8787 163.362 97.8787C163.96 97.8787 164.438 98.1514 164.862 98.7079C165.306 99.2905 165.65 100.143 165.902 101.153C166.403 103.165 166.468 105.509 166.468 106.745C166.468 108.029 166.357 110.519 165.792 112.661C165.509 113.736 165.13 114.653 164.647 115.284C164.182 115.892 163.665 116.187 163.042 116.187C162.669 116.187 162.47 116.109 162.359 116.036C162.248 115.965 162.146 115.85 162.052 115.641C161.952 115.422 161.875 115.136 161.804 114.761C161.769 114.577 161.738 114.385 161.704 114.176L161.7 114.155C161.668 113.956 161.633 113.744 161.594 113.531C161.433 112.667 161.165 111.609 160.382 110.785C159.569 109.93 158.344 109.467 156.578 109.467C155.775 109.467 155.09 109.65 154.54 110.034C153.99 110.419 153.654 110.95 153.45 111.501C153.088 112.478 153.09 113.683 153.092 114.624L153.092 114.809C153.092 117.139 153.131 118.917 153.304 120.252C153.475 121.572 153.795 122.621 154.488 123.353C155.201 124.106 156.164 124.375 157.24 124.486C158.112 124.576 159.191 124.573 160.456 124.569C160.733 124.568 161.019 124.567 161.314 124.567C164.689 124.567 167.068 123.987 168.808 123.054C170.562 122.115 171.593 120.856 172.331 119.64C172.657 119.102 172.93 118.565 173.173 118.086L173.254 117.927C173.526 117.394 173.759 116.953 174.016 116.587C174.268 116.228 174.519 115.979 174.803 115.814C175.081 115.654 175.444 115.543 175.97 115.543C176.62 115.543 177.146 115.893 177.548 116.521C177.96 117.165 178.18 118.024 178.18 118.777C178.18 120.779 177.368 123.688 176.215 126.119C175.642 127.327 175.008 128.366 174.391 129.088C173.73 129.861 173.258 130.075 173.026 130.075C172.879 130.075 172.58 130.039 172.082 129.964C171.922 129.94 171.744 129.913 171.553 129.883L171.551 129.883C171.187 129.826 170.772 129.762 170.332 129.699L170.31 129.696L170.288 129.694C170.134 129.68 169.975 129.665 169.811 129.65C168.483 129.526 166.812 129.371 164.834 129.371H138.53C136.519 129.371 135.739 128.909 135.433 128.581C135.132 128.259 135.104 127.877 135.104 127.481C135.104 126.82 135.288 126.598 135.472 126.449C135.6 126.345 135.769 126.249 136.016 126.13C136.088 126.096 136.177 126.055 136.276 126.009C136.461 125.924 136.678 125.825 136.866 125.728C137.517 125.396 138.249 124.912 138.832 123.99C139.404 123.085 139.784 121.835 139.902 120.049C139.971 119.003 140.035 118.059 140.092 117.2C140.678 108.474 140.68 108.449 140.095 97.8691C139.98 95.3655 139.581 93.7005 138.976 92.5652C138.346 91.383 137.524 90.8337 136.741 90.5084C136.468 90.3951 136.183 90.3035 135.951 90.2292C135.881 90.2066 135.816 90.1856 135.758 90.1661C135.476 90.0721 135.303 89.9983 135.177 89.912C135.073 89.8405 134.992 89.7536 134.926 89.5979C134.852 89.4238 134.784 89.1306 134.784 88.6326C134.784 87.8809 135.031 87.4295 135.379 87.1173C135.76 86.7755 136.341 86.5323 137.104 86.3826C138.289 86.15 139.632 86.1829 140.831 86.2123C141.212 86.2217 141.579 86.2307 141.922 86.2307H160.354Z" fill="#333333"/>
<path fill-rule="evenodd" clip-rule="evenodd" d="M200.55 92.0246C200.55 89.9338 201.036 88.236 202.069 87.0677C203.085 85.9191 204.754 85.1427 207.432 85.1427C209.892 85.1427 211.955 86.3943 213.756 88.2559C215.563 90.1246 217.021 92.5192 218.273 94.638C219.34 96.4603 228.984 116 231.282 121.235C231.859 122.563 232.556 123.419 233.316 123.988C234.069 124.551 234.826 124.788 235.407 124.956C236.054 125.145 236.32 125.223 236.498 125.38C236.596 125.465 236.777 125.676 236.777 126.457C236.777 127.288 236.395 127.911 235.671 128.424C234.913 128.961 233.814 129.345 232.526 129.603C230.135 130.083 227.393 130.078 225.712 130.075C225.585 130.075 225.465 130.075 225.352 130.075C220.739 130.075 217.178 130.054 214.763 129.564C213.56 129.319 212.755 128.978 212.259 128.554C211.806 128.166 211.558 127.665 211.558 126.905C211.558 126.346 211.723 126.071 211.909 125.889C212.136 125.667 212.471 125.504 212.957 125.317C213.019 125.293 213.086 125.268 213.156 125.242C213.558 125.092 214.076 124.898 214.482 124.615C214.743 124.434 214.997 124.193 215.182 123.865C215.37 123.532 215.462 123.156 215.462 122.745C215.462 121.969 215.36 121.186 214.886 120.534C214.406 119.871 213.657 119.496 212.722 119.261C211.788 119.026 210.55 118.902 208.94 118.832C207.32 118.762 205.271 118.747 202.696 118.747C201.866 118.747 201.081 118.754 200.381 118.819C199.686 118.884 199.013 119.011 198.428 119.283C197.821 119.565 197.318 120 196.982 120.639C196.657 121.258 196.521 122.006 196.521 122.873C196.521 123.306 196.612 123.703 196.807 124.053C197.003 124.402 197.274 124.651 197.557 124.833C198 125.117 198.562 125.283 198.988 125.408C199.056 125.428 199.12 125.447 199.18 125.465C199.695 125.622 200.032 125.76 200.258 125.966C200.435 126.127 200.617 126.401 200.617 127.033C200.617 127.688 200.341 128.177 199.824 128.587C199.276 129.022 198.47 129.352 197.501 129.587C195.566 130.055 193.295 130.075 192.008 130.075C187.434 130.075 185.126 129.634 183.975 129.048C183.434 128.773 183.195 128.489 183.07 128.235C182.936 127.96 182.886 127.625 182.886 127.161C182.886 126.594 183.039 126.309 183.22 126.117C183.436 125.888 183.773 125.702 184.305 125.489C184.446 125.432 184.602 125.374 184.769 125.312C185.737 124.952 187.06 124.46 188.006 123.287C188.769 122.349 189.49 121.083 190.128 119.832C190.62 118.866 191.081 117.871 191.483 117.004C191.604 116.744 191.719 116.495 191.828 116.263L191.831 116.257L195.863 107.489L195.866 107.482C195.949 107.297 196.034 107.109 196.119 106.919C198.05 102.633 200.55 97.0814 200.55 92.0246ZM205.64 101.467C204.881 101.467 204.308 101.935 203.926 102.375C203.53 102.832 203.202 103.415 202.94 103.968C202.523 104.849 202.202 105.821 202.039 106.313L202.038 106.316C201.999 106.434 201.969 106.524 201.949 106.578C201.897 106.722 201.803 106.956 201.681 107.262L201.641 107.361C201.503 107.707 201.34 108.116 201.185 108.529C201.03 108.94 200.878 109.367 200.764 109.748C200.659 110.097 200.553 110.508 200.553 110.841C200.553 111.357 200.758 111.795 201.123 112.1C201.449 112.374 201.84 112.489 202.151 112.545C202.625 112.631 203.197 112.613 203.527 112.603C203.607 112.601 203.673 112.599 203.72 112.599H208.52C208.562 112.599 208.617 112.6 208.684 112.601C209.02 112.607 209.632 112.617 210.173 112.532C210.497 112.481 210.898 112.383 211.238 112.163C211.618 111.917 211.942 111.497 211.942 110.905C211.942 110.479 211.76 109.947 211.583 109.499C211.389 109.006 211.129 108.447 210.86 107.905C210.322 106.821 209.721 105.75 209.461 105.295C209.406 105.197 209.341 105.076 209.267 104.939C209.001 104.444 208.622 103.74 208.186 103.136C207.902 102.742 207.559 102.34 207.159 102.032C206.756 101.721 206.243 101.467 205.64 101.467Z" fill="#333333"/>
<path d="M46.9541 89.2726C46.9541 88.6065 47.4077 87.9684 48.5503 87.3732C49.6743 86.7877 51.2409 86.3737 52.923 86.0907C56.2703 85.5277 59.7918 85.5267 60.428 85.5267C62.3569 85.5267 65.1894 85.5618 67.5266 86.1118C68.6972 86.3872 69.6625 86.7744 70.319 87.2877C70.9436 87.7761 71.278 88.3639 71.278 89.1446C71.278 89.5531 71.1755 89.7928 71.0449 89.9687C70.8978 90.1668 70.6671 90.3482 70.3043 90.5608C70.1328 90.6613 69.9498 90.7587 69.743 90.8689L69.7127 90.8851C69.4992 90.9989 69.2638 91.1249 69.0273 91.2652C68.5517 91.5472 68.0405 91.9045 67.5903 92.4134L67.5836 92.4212C67.1285 92.9481 66.8618 93.7586 66.6809 94.5841C66.4917 95.4478 66.3659 96.4843 66.2805 97.5903C66.1096 99.8039 66.094 102.395 66.094 104.633V110.969C66.094 116.645 66.2818 119.534 66.6621 121.107C66.8581 121.918 67.126 122.476 67.5227 122.888C67.8152 123.192 68.1802 123.397 68.4209 123.532C68.4742 123.562 68.5215 123.588 68.5605 123.612C68.899 123.815 69.24 123.994 69.5411 124.152L69.5429 124.153C69.6197 124.193 69.6938 124.232 69.7646 124.27C70.1311 124.465 70.4172 124.628 70.6473 124.805C70.869 124.975 71.0148 125.139 71.1107 125.323C71.2055 125.505 71.278 125.756 71.278 126.137C71.278 126.578 71.2415 126.952 71.0617 127.308C70.8886 127.65 70.5318 128.072 69.7106 128.488C68.0104 129.348 64.5426 130.075 57.548 130.075C56.1988 130.075 53.6 130.056 51.3529 129.551C50.2252 129.298 49.2656 128.939 48.606 128.458C47.9756 127.998 47.6581 127.464 47.6581 126.777C47.6581 126.152 47.9467 125.785 48.5186 125.37C48.7139 125.228 48.8955 125.113 49.0976 124.984C49.2334 124.897 49.3788 124.804 49.5436 124.694C49.9093 124.449 50.3178 124.148 50.6531 123.751C51.2035 123.107 51.581 122.082 51.8417 120.224C52.1062 118.34 52.2661 115.46 52.2661 110.969V104.633C52.2661 100.556 52.1063 98.0069 51.8478 96.3479C51.5879 94.6795 51.2166 93.8293 50.7379 93.22L50.7355 93.2169C50.2983 92.6658 49.7961 92.2522 49.3222 91.9116C49.0874 91.7429 48.8524 91.587 48.6369 91.4442L48.634 91.4423C48.413 91.2957 48.2144 91.1639 48.029 91.0299C47.6563 90.7605 47.3965 90.523 47.2243 90.2624C47.0641 90.02 46.9541 89.7185 46.9541 89.2726Z" fill="#333333"/>
<path fill-rule="evenodd" clip-rule="evenodd" d="M79.3746 88.3126C79.3746 87.775 79.5379 87.3924 79.7877 87.0951C80.0505 86.7822 80.4472 86.5203 80.9669 86.3138C82.0207 85.895 83.3767 85.7827 84.4645 85.7827H105.329C114.038 85.7827 119.681 88.4698 123.161 92.4333C126.659 96.4179 128.082 101.82 128.082 107.449C128.082 113.242 126.385 118.799 122.785 122.896C119.202 126.974 113.658 129.691 105.777 129.691C103.037 129.691 100.752 129.627 98.792 129.5L98.7782 129.499L98.104 129.477C96.3927 129.421 94.8379 129.371 93.2325 129.371C91.4229 129.371 89.552 129.435 87.7618 129.499L87.7464 129.5L87.7311 129.501C85.9599 129.627 84.1884 129.691 82.3525 129.691C81.3871 129.691 80.3204 129.445 79.525 128.955C78.7555 128.48 78.2866 127.817 78.2866 126.905C78.2866 126.4 78.3568 126.104 78.4329 125.929C78.501 125.772 78.5848 125.685 78.6915 125.615C78.8195 125.53 78.9968 125.46 79.2805 125.375C79.3482 125.355 79.4268 125.333 79.5126 125.309C79.7386 125.245 80.0146 125.167 80.2687 125.076C81.0536 124.793 81.8983 124.299 82.5259 123.164C83.125 122.08 83.4852 120.486 83.5344 118.09L84.0464 95.8845L84.0464 95.8814C84.0802 94.1409 83.7929 92.9181 83.2398 92.0321C82.6768 91.1303 81.9092 90.6932 81.2564 90.3933C81.1079 90.325 80.9599 90.2616 80.8252 90.2038L80.794 90.1904C80.647 90.1273 80.516 90.0708 80.3921 90.0123C80.143 89.8949 79.9627 89.7883 79.8249 89.669C79.6058 89.4792 79.3746 89.1604 79.3746 88.3126ZM101.425 91.0345C100.017 91.0345 98.8968 91.31 98.2592 92.2664C97.965 92.7078 97.8308 93.2175 97.7622 93.7252C97.6937 94.2322 97.6825 94.8076 97.6825 95.4166V119.289C97.6825 120.118 97.7142 120.874 97.8293 121.534C97.9448 122.196 98.1528 122.816 98.5438 123.335C99.3608 124.42 100.723 124.759 102.513 124.759C104.684 124.759 106.459 124.2 107.884 123.216C109.303 122.236 110.323 120.872 111.051 119.338C112.496 116.297 112.847 112.475 112.847 109.241C112.847 101.676 111.43 97.0975 109.219 94.4054C106.969 91.6669 104.03 91.0345 101.425 91.0345Z" fill="#333333"/>
</svg>
