<svg width="84" height="114" viewBox="0 0 84 114" fill="none" xmlns="http://www.w3.org/2000/svg">
<path d="M18.7845 4L22.8383 69.708H4L40.7163 106.699L47.7735 114L84 77.7791L78.3543 69.708H65.6279L69.1124 11.7876L63.2991 4L63.0772 4.04626L63.08 4H18.7845Z" fill="#FF6262"/>
<mask id="mask0_92_64" style="mask-type:alpha" maskUnits="userSpaceOnUse" x="4" y="4" width="80" height="110">
<path d="M18.7845 4L22.8383 69.708H4L40.7163 106.699L47.7735 114L84 77.7791L78.3543 69.708H65.6279L69.1124 11.7876L63.2991 4L63.0772 4.04626L63.08 4H18.7845Z" fill="#FF6262"/>
</mask>
<g mask="url(#mask0_92_64)">
<path d="M15.7891 8.75972C15.7891 7.16727 17.0827 5.87633 18.6784 5.87633C20.2741 5.87633 21.5676 7.16727 21.5676 8.75972C21.5676 10.3522 20.2741 11.6431 18.6784 11.6431C17.0827 11.6431 15.7891 10.3522 15.7891 8.75972Z" fill="#FFEB82"/>
<path d="M25.1792 8.75972C25.1792 7.29997 26.365 6.11661 27.8278 6.11661C29.2905 6.11661 30.4763 7.29997 30.4763 8.75972C30.4763 10.2195 29.2905 11.4028 27.8278 11.4028C26.365 11.4028 25.1792 10.2195 25.1792 8.75972Z" fill="#FFEB82"/>
<path d="M34.3286 8.75972C34.3286 7.43268 35.4066 6.35689 36.7364 6.35689C38.0661 6.35689 39.1441 7.43268 39.1441 8.75972C39.1441 10.0868 38.0661 11.1625 36.7364 11.1625C35.4066 11.1625 34.3286 10.0868 34.3286 8.75972Z" fill="#FFEB82"/>
<path d="M43.9596 8.75972C43.9596 7.69809 44.8219 6.83746 45.8857 6.83746C46.9496 6.83746 47.8119 7.69809 47.8119 8.75972C47.8119 9.82136 46.9496 10.682 45.8857 10.682C44.8219 10.682 43.9596 9.82136 43.9596 8.75972Z" fill="#FFEB82"/>
<path d="M53.3497 8.75972C53.3497 7.9635 53.9965 7.31803 54.7944 7.31803C55.5922 7.31803 56.239 7.9635 56.239 8.75972C56.239 9.55595 55.5922 10.2014 54.7944 10.2014C53.9965 10.2014 53.3497 9.55595 53.3497 8.75972Z" fill="#FFEB82"/>
<path d="M29.7539 4.43463C29.7539 5.76168 30.8319 6.83746 32.1617 6.83746C33.4914 6.83746 34.5694 5.76168 34.5694 4.43463C34.5694 3.10759 33.4914 2.03181 32.1617 2.03181C30.8319 2.03181 29.7539 3.10759 29.7539 4.43463Z" fill="#FFEB82"/>
<path d="M25.1792 -0.0105972C25.1792 1.3828 26.3111 2.51237 27.7074 2.51237C29.1036 2.51237 30.2355 1.3828 30.2355 -0.0105972C30.2355 -1.40399 29.1036 -2.53357 27.7074 -2.53357C26.3111 -2.53357 25.1792 -1.40399 25.1792 -0.0105972Z" fill="#FFEB82"/>
<path d="M34.5694 -0.0105972C34.5694 1.2501 35.5935 2.27209 36.8568 2.27209C38.12 2.27209 39.1441 1.2501 39.1441 -0.0105972C39.1441 -1.27129 38.12 -2.29328 36.8568 -2.29328C35.5935 -2.29328 34.5694 -1.27129 34.5694 -0.0105972Z" fill="#FFEB82"/>
<path d="M39.1441 4.43463C39.1441 5.62897 40.1143 6.59718 41.3111 6.59718C42.5078 6.59718 43.478 5.62897 43.478 4.43463C43.478 3.24029 42.5078 2.27209 41.3111 2.27209C40.1143 2.27209 39.1441 3.24029 39.1441 4.43463Z" fill="#FFEB82"/>
<path d="M48.5343 4.55478C48.5343 5.55006 49.3427 6.35689 50.3401 6.35689C51.3374 6.35689 52.1459 5.55006 52.1459 4.55478C52.1459 3.55949 51.3374 2.75266 50.3401 2.75266C49.3427 2.75266 48.5343 3.55949 48.5343 4.55478Z" fill="#FFEB82"/>
<path d="M43.7188 -0.0105972C43.7188 1.11739 44.6351 2.03181 45.7654 2.03181C46.8957 2.03181 47.8119 1.11739 47.8119 -0.0105972C47.8119 -1.13859 46.8957 -2.053 45.7654 -2.053C44.6351 -2.053 43.7188 -1.13859 43.7188 -0.0105972Z" fill="#FFEB82"/>
<path d="M53.3497 -0.0105972C53.3497 0.851982 54.0504 1.55124 54.9147 1.55124C55.7791 1.55124 56.4798 0.851982 56.4798 -0.0105972C56.4798 -0.873176 55.7791 -1.57243 54.9147 -1.57243C54.0504 -1.57243 53.3497 -0.873176 53.3497 -0.0105972Z" fill="#FFEB82"/>
<path d="M58.1652 4.43463C58.1652 5.09815 58.7042 5.63604 59.3691 5.63604C60.0339 5.63604 60.5729 5.09815 60.5729 4.43463C60.5729 3.77111 60.0339 3.23322 59.3691 3.23322C58.7042 3.23322 58.1652 3.77111 58.1652 4.43463Z" fill="#FFEB82"/>
<path d="M20.6046 4.55478C20.6046 6.08088 21.8442 7.31803 23.3735 7.31803C24.9027 7.31803 26.1423 6.08088 26.1423 4.55478C26.1423 3.02867 24.9027 1.79152 23.3735 1.79152C21.8442 1.79152 20.6046 3.02867 20.6046 4.55478Z" fill="#FFEB82"/>
<path d="M16.0299 -0.0105972C16.0299 1.5155 17.2695 2.75266 18.7988 2.75266C20.328 2.75266 21.5676 1.5155 21.5676 -0.0105972C21.5676 -1.5367 20.328 -2.77385 18.7988 -2.77385C17.2695 -2.77385 16.0299 -1.5367 16.0299 -0.0105972Z" fill="#FFEB82"/>
<path d="M29.7539 13.5654C29.7539 12.2383 30.8319 11.1625 32.1617 11.1625C33.4914 11.1625 34.5694 12.2383 34.5694 13.5654C34.5694 14.8924 33.4914 15.9682 32.1617 15.9682C30.8319 15.9682 29.7539 14.8924 29.7539 13.5654Z" fill="#FFEB82"/>
<path d="M25.1792 18.0106C25.1792 16.6172 26.3111 15.4876 27.7074 15.4876C29.1036 15.4876 30.2355 16.6172 30.2355 18.0106C30.2355 19.404 29.1036 20.5336 27.7074 20.5336C26.3111 20.5336 25.1792 19.404 25.1792 18.0106Z" fill="#FFEB82"/>
<path d="M29.9947 22.576C29.9947 21.3153 31.0188 20.2933 32.2821 20.2933C33.5453 20.2933 34.5694 21.3153 34.5694 22.576C34.5694 23.8367 33.5453 24.8587 32.2821 24.8587C31.0188 24.8587 29.9947 23.8367 29.9947 22.576Z" fill="#FFEB82"/>
<path d="M34.5694 18.0106C34.5694 16.7499 35.5935 15.7279 36.8568 15.7279C38.12 15.7279 39.1441 16.7499 39.1441 18.0106C39.1441 19.2713 38.12 20.2933 36.8568 20.2933C35.5935 20.2933 34.5694 19.2713 34.5694 18.0106Z" fill="#FFEB82"/>
<path d="M39.1441 13.5654C39.1441 12.371 40.1143 11.4028 41.3111 11.4028C42.5078 11.4028 43.478 12.371 43.478 13.5654C43.478 14.7597 42.5078 15.7279 41.3111 15.7279C40.1143 15.7279 39.1441 14.7597 39.1441 13.5654Z" fill="#FFEB82"/>
<path d="M48.5343 13.4452C48.5343 12.4499 49.3427 11.6431 50.3401 11.6431C51.3374 11.6431 52.1459 12.4499 52.1459 13.4452C52.1459 14.4405 51.3374 15.2474 50.3401 15.2474C49.3427 15.2474 48.5343 14.4405 48.5343 13.4452Z" fill="#FFEB82"/>
<path d="M43.7188 18.0106C43.7188 16.8826 44.6351 15.9682 45.7654 15.9682C46.8957 15.9682 47.8119 16.8826 47.8119 18.0106C47.8119 19.1386 46.8957 20.053 45.7654 20.053C44.6351 20.053 43.7188 19.1386 43.7188 18.0106Z" fill="#FFEB82"/>
<path d="M39.1441 22.4558C39.1441 21.2615 40.1143 20.2933 41.3111 20.2933C42.5078 20.2933 43.478 21.2615 43.478 22.4558C43.478 23.6502 42.5078 24.6184 41.3111 24.6184C40.1143 24.6184 39.1441 23.6502 39.1441 22.4558Z" fill="#FFEB82"/>
<path d="M34.5694 26.9011C34.5694 25.6404 35.5935 24.6184 36.8568 24.6184C38.12 24.6184 39.1441 25.6404 39.1441 26.9011C39.1441 28.1618 38.12 29.1838 36.8568 29.1838C35.5935 29.1838 34.5694 28.1618 34.5694 26.9011Z" fill="#FFEB82"/>
<path d="M39.3849 31.5866C39.3849 30.5249 40.2473 29.6643 41.3111 29.6643C42.3749 29.6643 43.2372 30.5249 43.2372 31.5866C43.2372 32.6482 42.3749 33.5088 41.3111 33.5088C40.2473 33.5088 39.3849 32.6482 39.3849 31.5866Z" fill="#FFEB82"/>
<path d="M43.9596 26.9011C43.9596 25.9058 44.7681 25.0989 45.7654 25.0989C46.7627 25.0989 47.5712 25.9058 47.5712 26.9011C47.5712 27.8963 46.7627 28.7032 45.7654 28.7032C44.7681 28.7032 43.9596 27.8963 43.9596 26.9011Z" fill="#FFEB82"/>
<path d="M16.7522 54.053C16.7522 53.0577 17.5607 52.2509 18.558 52.2509C19.5553 52.2509 20.3638 53.0577 20.3638 54.053C20.3638 55.0483 19.5553 55.8551 18.558 55.8551C17.5607 55.8551 16.7522 55.0483 16.7522 54.053Z" fill="#FFEB82"/>
<path d="M48.775 22.4558C48.775 21.5269 49.5296 20.7739 50.4604 20.7739C51.3913 20.7739 52.1459 21.5269 52.1459 22.4558C52.1459 23.3848 51.3913 24.1378 50.4604 24.1378C49.5296 24.1378 48.775 23.3848 48.775 22.4558Z" fill="#FFEB82"/>
<path d="M53.3497 18.0106C53.3497 17.148 54.0504 16.4488 54.9147 16.4488C55.7791 16.4488 56.4798 17.148 56.4798 18.0106C56.4798 18.8732 55.7791 19.5724 54.9147 19.5724C54.0504 19.5724 53.3497 18.8732 53.3497 18.0106Z" fill="#FFEB82"/>
<path d="M58.1652 13.5654C58.1652 12.9018 58.7042 12.364 59.3691 12.364C60.0339 12.364 60.5729 12.9018 60.5729 13.5654C60.5729 14.2289 60.0339 14.7668 59.3691 14.7668C58.7042 14.7668 58.1652 14.2289 58.1652 13.5654Z" fill="#FFEB82"/>
<path d="M4.95429 66.1873C5.61917 66.1873 6.15816 66.7252 6.15816 67.3887C6.15816 68.0522 5.61917 68.5901 4.95429 68.5901C4.28942 68.5901 3.75043 68.0522 3.75043 67.3887C3.75043 66.7252 4.28942 66.1873 4.95429 66.1873Z" fill="#FFEB82"/>
<path d="M58.1652 22.4558C58.1652 21.7923 58.7042 21.2544 59.3691 21.2544C60.0339 21.2544 60.5729 21.7923 60.5729 22.4558C60.5729 23.1194 60.0339 23.6572 59.3691 23.6572C58.7042 23.6572 58.1652 23.1194 58.1652 22.4558Z" fill="#FFEB82"/>
<path d="M13.1406 67.5088C13.1406 66.9117 13.6257 66.4276 14.2241 66.4276C14.8224 66.4276 15.3075 66.9117 15.3075 67.5088C15.3075 68.106 14.8224 68.5901 14.2241 68.5901C13.6257 68.5901 13.1406 68.106 13.1406 67.5088Z" fill="#FFEB82"/>
<path d="M8.80666 72.0742C8.80666 71.6097 9.18395 71.2332 9.64937 71.2332C10.1148 71.2332 10.4921 71.6097 10.4921 72.0742C10.4921 72.5387 10.1148 72.9152 9.64937 72.9152C9.18395 72.9152 8.80666 72.5387 8.80666 72.0742Z" fill="#FFEB82"/>
<path d="M53.5905 27.1413C53.5905 26.4115 54.1834 25.8198 54.9147 25.8198C55.6461 25.8198 56.239 26.4115 56.239 27.1413C56.239 27.8712 55.6461 28.4629 54.9147 28.4629C54.1834 28.4629 53.5905 27.8712 53.5905 27.1413Z" fill="#FFEB82"/>
<path d="M17.4745 63.1837C17.4745 62.4539 18.0674 61.8622 18.7988 61.8622C19.5301 61.8622 20.123 62.4539 20.123 63.1837C20.123 63.9136 19.5301 64.5053 18.7988 64.5053C18.0674 64.5053 17.4745 63.9136 17.4745 63.1837Z" fill="#FFEB82"/>
<path d="M49.0158 31.5866C49.0158 30.7903 49.6626 30.1449 50.4604 30.1449C51.2583 30.1449 51.9051 30.7903 51.9051 31.5866C51.9051 32.3828 51.2583 33.0283 50.4604 33.0283C49.6626 33.0283 49.0158 32.3828 49.0158 31.5866Z" fill="#FFEB82"/>
<path d="M21.8084 58.7385C21.8084 57.9423 22.4552 57.2968 23.2531 57.2968C24.0509 57.2968 24.6977 57.9423 24.6977 58.7385C24.6977 59.5347 24.0509 60.1802 23.2531 60.1802C22.4552 60.1802 21.8084 59.5347 21.8084 58.7385Z" fill="#FFEB82"/>
<path d="M44.2003 36.1519C44.2003 35.223 44.9549 34.47 45.8857 34.47C46.8166 34.47 47.5712 35.223 47.5712 36.1519C47.5712 37.0809 46.8166 37.8339 45.8857 37.8339C44.9549 37.8339 44.2003 37.0809 44.2003 36.1519Z" fill="#FFEB82"/>
<path d="M49.2566 40.5972C49.2566 40 49.7417 39.5159 50.3401 39.5159C50.9384 39.5159 51.4235 40 51.4235 40.5972C51.4235 41.1944 50.9384 41.6784 50.3401 41.6784C49.7417 41.6784 49.2566 41.1944 49.2566 40.5972Z" fill="#FFEB82"/>
<path d="M53.8313 36.0318C53.8313 35.4346 54.3164 34.9505 54.9147 34.9505C55.5131 34.9505 55.9982 35.4346 55.9982 36.0318C55.9982 36.629 55.5131 37.1131 54.9147 37.1131C54.3164 37.1131 53.8313 36.629 53.8313 36.0318Z" fill="#FFEB82"/>
<path d="M26.6239 63.1837C26.6239 62.5866 27.109 62.1025 27.7074 62.1025C28.3058 62.1025 28.7908 62.5866 28.7908 63.1837C28.7908 63.7809 28.3058 64.265 27.7074 64.265C27.109 64.265 26.6239 63.7809 26.6239 63.1837Z" fill="#FFEB82"/>
<path d="M58.6467 31.4664C58.6467 31.002 59.024 30.6254 59.4894 30.6254C59.9549 30.6254 60.3322 31.002 60.3322 31.4664C60.3322 31.9309 59.9549 32.3074 59.4894 32.3074C59.024 32.3074 58.6467 31.9309 58.6467 31.4664Z" fill="#FFEB82"/>
<path d="M22.5307 67.5088C22.5307 67.0444 22.908 66.6678 23.3735 66.6678C23.8389 66.6678 24.2162 67.0444 24.2162 67.5088C24.2162 67.9733 23.8389 68.3498 23.3735 68.3498C22.908 68.3498 22.5307 67.9733 22.5307 67.5088Z" fill="#FFEB82"/>
<path d="M17.956 71.9541C17.956 71.5559 18.2794 71.2332 18.6784 71.2332C19.0773 71.2332 19.4007 71.5559 19.4007 71.9541C19.4007 72.3522 19.0773 72.6749 18.6784 72.6749C18.2794 72.6749 17.956 72.3522 17.956 71.9541Z" fill="#FFEB82"/>
<path d="M27.3462 71.9541C27.3462 71.6886 27.5618 71.4735 27.8278 71.4735C28.0937 71.4735 28.3093 71.6886 28.3093 71.9541C28.3093 72.2195 28.0937 72.4346 27.8278 72.4346C27.5618 72.4346 27.3462 72.2195 27.3462 71.9541Z" fill="#FFEB82"/>
<path d="M58.8875 40.5972C58.8875 40.2654 59.157 39.9965 59.4894 39.9965C59.8219 39.9965 60.0914 40.2654 60.0914 40.5972C60.0914 40.9289 59.8219 41.1979 59.4894 41.1979C59.157 41.1979 58.8875 40.9289 58.8875 40.5972Z" fill="#FFEB82"/>
<path d="M31.6801 67.7491C31.6801 67.4174 31.9496 67.1484 32.2821 67.1484C32.6145 67.1484 32.884 67.4174 32.884 67.7491C32.884 68.0809 32.6145 68.3498 32.2821 68.3498C31.9496 68.3498 31.6801 68.0809 31.6801 67.7491Z" fill="#FFEB82"/>
<path d="M54.3128 45.0424C54.3128 44.6443 54.6362 44.3216 55.0351 44.3216C55.4341 44.3216 55.7575 44.6443 55.7575 45.0424C55.7575 45.4405 55.4341 45.7633 55.0351 45.7633C54.6362 45.7633 54.3128 45.4405 54.3128 45.0424Z" fill="#FFEB82"/>
<path d="M20.6046 13.4452C20.6046 11.9191 21.8442 10.682 23.3735 10.682C24.9027 10.682 26.1423 11.9191 26.1423 13.4452C26.1423 14.9713 24.9027 16.2085 23.3735 16.2085C21.8442 16.2085 20.6046 14.9713 20.6046 13.4452Z" fill="#FFEB82"/>
<path d="M16.0299 18.0106C16.0299 16.4845 17.2695 15.2474 18.7988 15.2474C20.328 15.2474 21.5676 16.4845 21.5676 18.0106C21.5676 19.5367 20.328 20.7739 18.7988 20.7739C17.2695 20.7739 16.0299 19.5367 16.0299 18.0106Z" fill="#FFEB82"/>
<path d="M20.6046 22.4558C20.6046 20.9961 21.7903 19.8127 23.2531 19.8127C24.7158 19.8127 25.9016 20.9961 25.9016 22.4558C25.9016 23.9156 24.7158 25.0989 23.2531 25.0989C21.7903 25.0989 20.6046 23.9156 20.6046 22.4558Z" fill="#FFEB82"/>
<path d="M25.42 27.0212C25.42 25.6942 26.498 24.6184 27.8278 24.6184C29.1575 24.6184 30.2355 25.6942 30.2355 27.0212C30.2355 28.3483 29.1575 29.424 27.8278 29.424C26.498 29.424 25.42 28.3483 25.42 27.0212Z" fill="#FFEB82"/>
<path d="M29.9947 31.4664C29.9947 30.2057 31.0188 29.1838 32.2821 29.1838C33.5453 29.1838 34.5694 30.2057 34.5694 31.4664C34.5694 32.7271 33.5453 33.7491 32.2821 33.7491C31.0188 33.7491 29.9947 32.7271 29.9947 31.4664Z" fill="#FFEB82"/>
<path d="M34.8102 36.0318C34.8102 34.9038 35.7265 33.9894 36.8568 33.9894C37.987 33.9894 38.9033 34.9038 38.9033 36.0318C38.9033 37.1598 37.987 38.0742 36.8568 38.0742C35.7265 38.0742 34.8102 37.1598 34.8102 36.0318Z" fill="#FFEB82"/>
<path d="M39.6256 40.477C39.6256 39.5481 40.3802 38.7951 41.3111 38.7951C42.2419 38.7951 42.9965 39.5481 42.9965 40.477C42.9965 41.406 42.2419 42.159 41.3111 42.159C40.3802 42.159 39.6256 41.406 39.6256 40.477Z" fill="#FFEB82"/>
<path d="M44.4411 44.9223C44.4411 44.1924 45.034 43.6007 45.7654 43.6007C46.4967 43.6007 47.0896 44.1924 47.0896 44.9223C47.0896 45.6521 46.4967 46.2438 45.7654 46.2438C45.034 46.2438 44.4411 45.6521 44.4411 44.9223Z" fill="#FFEB82"/>
<path d="M49.4974 49.4876C49.4974 49.0232 49.8746 48.6466 50.3401 48.6466C50.8055 48.6466 51.1828 49.0232 51.1828 49.4876C51.1828 49.9521 50.8055 50.3286 50.3401 50.3286C49.8746 50.3286 49.4974 49.9521 49.4974 49.4876Z" fill="#FFEB82"/>
<path d="M16.0299 27.0212C16.0299 25.5615 17.2156 24.3781 18.6784 24.3781C20.1411 24.3781 21.3269 25.5615 21.3269 27.0212C21.3269 28.481 20.1411 29.6643 18.6784 29.6643C17.2156 29.6643 16.0299 28.481 16.0299 27.0212Z" fill="#FFEB82"/>
<path d="M20.8453 31.5866C20.8453 30.2595 21.9233 29.1838 23.2531 29.1838C24.5828 29.1838 25.6608 30.2595 25.6608 31.5866C25.6608 32.9136 24.5828 33.9894 23.2531 33.9894C21.9233 33.9894 20.8453 32.9136 20.8453 31.5866Z" fill="#FFEB82"/>
<path d="M25.6608 36.0318C25.6608 34.7711 26.6849 33.7491 27.9481 33.7491C29.2114 33.7491 30.2355 34.7711 30.2355 36.0318C30.2355 37.2925 29.2114 38.3145 27.9481 38.3145C26.6849 38.3145 25.6608 37.2925 25.6608 36.0318Z" fill="#FFEB82"/>
<path d="M16.5114 45.0424C16.5114 43.8481 17.4816 42.8799 18.6784 42.8799C19.8751 42.8799 20.8453 43.8481 20.8453 45.0424C20.8453 46.2367 19.8751 47.205 18.6784 47.205C17.4816 47.205 16.5114 46.2367 16.5114 45.0424Z" fill="#FFEB82"/>
<path d="M30.2355 40.5972C30.2355 39.4692 31.1518 38.5548 32.2821 38.5548C33.4123 38.5548 34.3286 39.4692 34.3286 40.5972C34.3286 41.7252 33.4123 42.6396 32.2821 42.6396C31.1518 42.6396 30.2355 41.7252 30.2355 40.5972Z" fill="#FFEB82"/>
<path d="M21.3269 49.6078C21.3269 48.5461 22.1893 47.6855 23.2531 47.6855C24.3169 47.6855 25.1792 48.5461 25.1792 49.6078C25.1792 50.6694 24.3169 51.53 23.2531 51.53C22.1893 51.53 21.3269 50.6694 21.3269 49.6078Z" fill="#FFEB82"/>
<path d="M35.051 45.0424C35.051 44.1135 35.8055 43.3604 36.7364 43.3604C37.6672 43.3604 38.4218 44.1135 38.4218 45.0424C38.4218 45.9713 37.6672 46.7244 36.7364 46.7244C35.8055 46.7244 35.051 45.9713 35.051 45.0424Z" fill="#FFEB82"/>
<path d="M26.1423 54.053C26.1423 53.1904 26.843 52.4912 27.7074 52.4912C28.5717 52.4912 29.2724 53.1904 29.2724 54.053C29.2724 54.9156 28.5717 55.6148 27.7074 55.6148C26.843 55.6148 26.1423 54.9156 26.1423 54.053Z" fill="#FFEB82"/>
<path d="M39.8664 49.4876C39.8664 48.7578 40.4593 48.1661 41.1907 48.1661C41.922 48.1661 42.5149 48.7578 42.5149 49.4876C42.5149 50.2175 41.922 50.8092 41.1907 50.8092C40.4593 50.8092 39.8664 50.2175 39.8664 49.4876Z" fill="#FFEB82"/>
<path d="M30.9578 58.4982C30.9578 57.8347 31.4968 57.2968 32.1617 57.2968C32.8266 57.2968 33.3655 57.8347 33.3655 58.4982C33.3655 59.1618 32.8266 59.6996 32.1617 59.6996C31.4968 59.6996 30.9578 59.1618 30.9578 58.4982Z" fill="#FFEB82"/>
<path d="M44.9227 54.053C44.9227 53.5885 45.3 53.212 45.7654 53.212C46.2308 53.212 46.6081 53.5885 46.6081 54.053C46.6081 54.5175 46.2308 54.894 45.7654 54.894C45.3 54.894 44.9227 54.5175 44.9227 54.053Z" fill="#FFEB82"/>
<path d="M36.014 63.0636C36.014 62.6655 36.3374 62.3428 36.7364 62.3428C37.1353 62.3428 37.4587 62.6655 37.4587 63.0636C37.4587 63.4617 37.1353 63.7845 36.7364 63.7845C36.3374 63.7845 36.014 63.4617 36.014 63.0636Z" fill="#FFEB82"/>
<path d="M16.2706 36.1519C16.2706 34.8249 17.3486 33.7491 18.6784 33.7491C20.0081 33.7491 21.0861 34.8249 21.0861 36.1519C21.0861 37.479 20.0081 38.5548 18.6784 38.5548C17.3486 38.5548 16.2706 37.479 16.2706 36.1519Z" fill="#FFEB82"/>
<path d="M21.0861 40.5972C21.0861 39.3365 22.1102 38.3145 23.3735 38.3145C24.6367 38.3145 25.6608 39.3365 25.6608 40.5972C25.6608 41.8579 24.6367 42.8799 23.3735 42.8799C22.1102 42.8799 21.0861 41.8579 21.0861 40.5972Z" fill="#FFEB82"/>
<path d="M25.9016 45.2827C25.9016 44.2211 26.7639 43.3604 27.8278 43.3604C28.8916 43.3604 29.7539 44.2211 29.7539 45.2827C29.7539 46.3443 28.8916 47.205 27.8278 47.205C26.7639 47.205 25.9016 46.3443 25.9016 45.2827Z" fill="#FFEB82"/>
<path d="M30.717 49.7279C30.717 48.8653 31.4177 48.1661 32.2821 48.1661C33.1464 48.1661 33.8471 48.8653 33.8471 49.7279C33.8471 50.5905 33.1464 51.2898 32.2821 51.2898C31.4177 51.2898 30.717 50.5905 30.717 49.7279Z" fill="#FFEB82"/>
<path d="M35.5325 54.053C35.5325 53.3231 36.1254 52.7314 36.8568 52.7314C37.5881 52.7314 38.181 53.3231 38.181 54.053C38.181 54.7829 37.5881 55.3746 36.8568 55.3746C36.1254 55.3746 35.5325 54.7829 35.5325 54.053Z" fill="#FFEB82"/>
<path d="M40.348 58.7385C40.348 58.2077 40.7792 57.7774 41.3111 57.7774C41.843 57.7774 42.2742 58.2077 42.2742 58.7385C42.2742 59.2693 41.843 59.6996 41.3111 59.6996C40.7792 59.6996 40.348 59.2693 40.348 58.7385Z" fill="#FFEB82"/>
</g>
<path d="M18.7485 66.9005H19.8116L19.7467 65.8394L15.7772 1H57.9343L53.8045 65.8369L53.7371 66.895L54.7973 66.9005L71.5754 66.9874L36.5105 101.585L2.38667 66.9005H18.7485Z" stroke="black" stroke-width="2"/>
<path d="M36.5 103L44.5 110.5L80 74.4498L74 66L36.5 103Z" fill="black"/>
<path d="M61.7483 66.3053L65.21 7.85841L59 0L54 66.3053H61.7483Z" fill="black"/>
</svg>
